<svg width="6218" height="1356" xmlns="http://www.w3.org/2000/svg" xmlns:xlink="http://www.w3.org/1999/xlink" xml:space="preserve" overflow="hidden"><defs><clipPath id="clip0"><rect x="7" y="289" width="6218" height="1356"/></clipPath></defs><g clip-path="url(#clip0)" transform="translate(-7 -289)"><g><path d="M3483.5 1133.54 6174.5 1133.54M3483.5 1010.53 6174.5 1010.53M3483.5 886.529 6174.5 886.529M3483.5 762.525 6174.5 762.525M3483.5 638.5 6174.5 638.5" stroke="#F2F2F2" stroke-width="3.4375" stroke-linejoin="round" stroke-miterlimit="10" fill="none"/></g><g><path d="M3627.12 862.028 3706.12 862.028 3706.12 1258 3627.12 1258ZM4300.14 657.022 4379.14 657.022 4379.14 1258 4300.14 1258ZM4973.16 874.029 5051.17 874.029 5051.17 1258 4973.16 1258ZM5645.19 927.03 5724.19 927.03 5724.19 1258 5645.19 1258Z" fill="#F4433C"/></g><g><path d="M3730.12 734.024 3808.12 734.024 3808.12 1258 3730.12 1258ZM4402.14 645.021 4481.15 645.021 4481.15 1258 4402.14 1258ZM5075.17 692.023 5153.17 692.023 5153.17 1258 5075.17 1258ZM5747.19 738.024 5826.19 738.024 5826.19 1258 5747.19 1258Z" fill="#2D85F0"/></g><g><path d="M3832.13 1239.04 3910.13 1239.04 3910.13 1258 3832.13 1258ZM4504.15 1140.04 4583.15 1140.04 4583.15 1258 4504.15 1258ZM5177.17 1165.04 5255.17 1165.04 5255.17 1258 5177.17 1258ZM5849.19 1177.04 5928.19 1177.04 5928.19 1258 5849.19 1258Z" stroke="#F4433C" stroke-width="13.75" stroke-linejoin="round" stroke-miterlimit="10" fill="none"/></g><g><path d="M3934.13 732.024 4012.13 732.024 4012.13 1258 3934.13 1258ZM4606.15 651.021 4685.15 651.021 4685.15 1258 4606.15 1258ZM5279.17 688.023 5357.18 688.023 5357.18 1258 5279.17 1258ZM5951.2 738.024 6030.2 738.024 6030.2 1258 5951.2 1258Z" stroke="#2D85F0" stroke-width="13.75" stroke-linejoin="round" stroke-miterlimit="10" fill="none"/></g><g><path d="M0 0 0.000360892 619" stroke="#000000" stroke-width="4.58333" stroke-linejoin="round" stroke-miterlimit="10" fill="none" fill-rule="evenodd" transform="matrix(1 0 0 -1 3483.5 1257.5)"/></g><g><path d="M3457.5 1257.5 3483.5 1257.5M3457.5 1133.54 3483.5 1133.54M3457.5 1010.53 3483.5 1010.53M3457.5 886.529 3483.5 886.529M3457.5 762.525 3483.5 762.525M3457.5 638.5 3483.5 638.5" stroke="#000000" stroke-width="4.58333" stroke-linejoin="round" stroke-miterlimit="10" fill="none"/></g><g><path d="M3483.5 1257.5 6174.5 1257.5" stroke="#000000" stroke-width="4.58333" stroke-linejoin="round" stroke-miterlimit="10" fill="none" fill-rule="evenodd"/></g><g><path d="M3819.5 1257.5 3819.5 1279.5M4492.65 1257.5 4492.65 1279.5M5164.67 1257.5 5164.67 1279.5M5837.69 1257.5 5837.69 1279.5M6174.5 1257.5 6174.5 1279.5" stroke="#000000" stroke-width="4.58333" stroke-linejoin="round" stroke-miterlimit="10" fill="none"/></g><g><text font-family="Calibri,Calibri_MSFontService,sans-serif" font-weight="400" font-size="83" transform="matrix(1 0 0 1 3364.29 1282)">0</text></g><g><text font-family="Calibri,Calibri_MSFontService,sans-serif" font-weight="400" font-size="83" transform="matrix(1 0 0 1 3321.55 1158)">20</text></g><g><text font-family="Calibri,Calibri_MSFontService,sans-serif" font-weight="400" font-size="83" transform="matrix(1 0 0 1 3321.55 1034)">40</text></g><g><text font-family="Calibri,Calibri_MSFontService,sans-serif" font-weight="400" font-size="83" transform="matrix(1 0 0 1 3321.55 911)">60</text></g><g><text font-family="Calibri,Calibri_MSFontService,sans-serif" font-weight="400" font-size="83" transform="matrix(1 0 0 1 3321.55 787)">80</text></g><g><text font-family="Calibri,Calibri_MSFontService,sans-serif" font-weight="400" font-size="83" transform="matrix(1 0 0 1 3278.81 663)">100</text></g><g><text font-family="Calibri,Calibri_MSFontService,sans-serif" font-weight="400" font-size="92" transform="matrix(1 0 0 1 3582.35 1403)">LIBERO</text></g><g><text font-family="Calibri,Calibri_MSFontService,sans-serif" font-weight="400" font-size="92" transform="matrix(1 0 0 1 3853.68 1403)">-</text></g><g><text font-family="Calibri,Calibri_MSFontService,sans-serif" font-weight="400" font-size="92" transform="matrix(1 0 0 1 3882.67 1403)">Goal</text></g><g><text font-family="Calibri,Calibri_MSFontService,sans-serif" font-weight="400" font-size="92" transform="matrix(1 0 0 1 4216.68 1403)">LIBERO</text></g><g><text font-family="Calibri,Calibri_MSFontService,sans-serif" font-weight="400" font-size="92" transform="matrix(1 0 0 1 4488.02 1403)">-</text></g><g><text font-family="Calibri,Calibri_MSFontService,sans-serif" font-weight="400" font-size="92" transform="matrix(1 0 0 1 4517.01 1403)">Object</text></g><g><text font-family="Calibri,Calibri_MSFontService,sans-serif" font-weight="400" font-size="92" transform="matrix(1 0 0 1 4886.76 1403)">LIBERO</text></g><g><text font-family="Calibri,Calibri_MSFontService,sans-serif" font-weight="400" font-size="92" transform="matrix(1 0 0 1 5158.09 1403)">-</text></g><g><text font-family="Calibri,Calibri_MSFontService,sans-serif" font-weight="400" font-size="92" transform="matrix(1 0 0 1 5187.08 1403)">Spatial</text></g><g><text font-family="Calibri,Calibri_MSFontService,sans-serif" font-weight="400" font-size="92" transform="matrix(1 0 0 1 5638.69 1403)">LIBERO</text></g><g><text font-family="Calibri,Calibri_MSFontService,sans-serif" font-weight="400" font-size="92" transform="matrix(1 0 0 1 5910.02 1403)">-</text></g><g><text font-family="Calibri,Calibri_MSFontService,sans-serif" font-weight="400" font-size="92" transform="matrix(1 0 0 1 5939.01 1403)">All</text></g><g><rect x="4523" y="420" width="427" height="146" fill="#FFFFFF"/></g><rect x="3447" y="1261" width="23.9998" height="40.0002" fill="#FFFFFF"/><text font-family="Calibri,Calibri_MSFontService,sans-serif" font-weight="400" font-size="92" transform="matrix(6.12323e-17 -1 1 6.12323e-17 126.028 1329)">Avg. Success Rate (%)</text><g><path d="M361.5 1133.54 3052.5 1133.54M361.5 1010.53 3052.5 1010.53M361.5 886.529 3052.5 886.529M361.5 762.525 3052.5 762.525M361.5 638.5 3052.5 638.5" stroke="#F2F2F2" stroke-width="3.4375" stroke-linejoin="round" stroke-miterlimit="10" fill="none"/></g><g><path d="M460.015 868.029 534.018 868.029 534.018 1258 460.015 1258ZM1133.04 676.022 1207.04 676.022 1207.04 1258 1133.04 1258ZM1806.06 812.027 1879.06 812.027 1879.06 1258 1806.06 1258ZM2478.08 936.031 2552.08 936.031 2552.08 1258 2478.08 1258Z" fill="#2D85F0"/></g><g><path d="M561.018 713.023 635.021 713.023 635.021 1258 561.018 1258ZM1233.04 657.022 1307.04 657.022 1307.04 1258 1233.04 1258ZM1906.06 763.025 1980.06 763.025 1980.06 1258 1906.06 1258ZM2579.08 775.025 2652.09 775.025 2652.09 1258 2579.08 1258Z" fill="#F4433C"/></g><g><path d="M1334.04 1165.04 1408.05 1165.04 1408.05 1258 1334.04 1258ZM2006.07 1140.04 2080.07 1140.04 2080.07 1258 2006.07 1258ZM2679.09 1177.04 2753.09 1177.04 2753.09 1258 2679.09 1258Z" stroke="#2D85F0" stroke-width="13.75" stroke-linejoin="round" stroke-miterlimit="10" fill="none"/></g><g><path d="M762.025 803.026 835.027 803.026 835.027 1258 762.025 1258ZM1434.05 699.023 1508.05 699.023 1508.05 1258 1434.05 1258ZM2107.07 789.026 2181.07 789.026 2181.07 1258 2107.07 1258ZM2779.09 833.027 2853.09 833.027 2853.09 1258 2779.09 1258Z" stroke="#F4433C" stroke-width="13.75" stroke-linejoin="round" stroke-miterlimit="10" fill="none"/></g><g><path d="M862.028 1227.04 936.031 1227.04 936.031 1258 862.028 1258ZM1535.05 862.028 1608.05 862.028 1608.05 1258 1535.05 1258ZM2207.07 985.032 2281.07 985.032 2281.07 1258 2207.07 1258ZM2880.09 1128.04 2954.1 1128.04 2954.1 1258 2880.09 1258Z" fill="#FFBC32"/></g><g><path d="M0 0 0.000360892 619" stroke="#000000" stroke-width="4.58333" stroke-linejoin="round" stroke-miterlimit="10" fill="none" fill-rule="evenodd" transform="matrix(1 0 0 -1 361.5 1257.5)"/></g><g><path d="M335.5 1257.5 361.5 1257.5M335.5 1133.54 361.5 1133.54M335.5 1010.53 361.5 1010.53M335.5 886.529 361.5 886.529M335.5 762.525 361.5 762.525M335.5 638.5 361.5 638.5" stroke="#000000" stroke-width="4.58333" stroke-linejoin="round" stroke-miterlimit="10" fill="none"/></g><g><path d="M361.5 1257.5 3052.5 1257.5" stroke="#000000" stroke-width="4.58333" stroke-linejoin="round" stroke-miterlimit="10" fill="none" fill-rule="evenodd"/></g><g><path d="M698.5 1257.5 698.5 1279.5M1370.55 1257.5 1370.55 1279.5M2043.57 1257.5 2043.57 1279.5M2715.59 1257.5 2715.59 1279.5M3052.5 1257.5 3052.5 1279.5" stroke="#000000" stroke-width="4.58333" stroke-linejoin="round" stroke-miterlimit="10" fill="none"/></g><g><text font-family="Calibri,Calibri_MSFontService,sans-serif" font-weight="400" font-size="83" transform="matrix(1 0 0 1 242.529 1282)">0</text></g><g><text font-family="Calibri,Calibri_MSFontService,sans-serif" font-weight="400" font-size="83" transform="matrix(1 0 0 1 199.789 1158)">20</text></g><g><text font-family="Calibri,Calibri_MSFontService,sans-serif" font-weight="400" font-size="83" transform="matrix(1 0 0 1 199.789 1034)">40</text></g><g><text font-family="Calibri,Calibri_MSFontService,sans-serif" font-weight="400" font-size="83" transform="matrix(1 0 0 1 199.789 911)">60</text></g><g><text font-family="Calibri,Calibri_MSFontService,sans-serif" font-weight="400" font-size="83" transform="matrix(1 0 0 1 199.789 787)">80</text></g><g><text font-family="Calibri,Calibri_MSFontService,sans-serif" font-weight="400" font-size="83" transform="matrix(1 0 0 1 157.049 663)">100</text></g><g><text font-family="Calibri,Calibri_MSFontService,sans-serif" font-weight="400" font-size="92" transform="matrix(1 0 0 1 460.585 1403)">LIBERO</text></g><g><text font-family="Calibri,Calibri_MSFontService,sans-serif" font-weight="400" font-size="92" transform="matrix(1 0 0 1 731.919 1403)">-</text></g><g><text font-family="Calibri,Calibri_MSFontService,sans-serif" font-weight="400" font-size="92" transform="matrix(1 0 0 1 760.908 1403)">Goal</text></g><g><text font-family="Calibri,Calibri_MSFontService,sans-serif" font-weight="400" font-size="92" transform="matrix(1 0 0 1 1094.92 1403)">LIBERO</text></g><g><text font-family="Calibri,Calibri_MSFontService,sans-serif" font-weight="400" font-size="92" transform="matrix(1 0 0 1 1366.25 1403)">-</text></g><g><text font-family="Calibri,Calibri_MSFontService,sans-serif" font-weight="400" font-size="92" transform="matrix(1 0 0 1 1395.24 1403)">Object</text></g><g><text font-family="Calibri,Calibri_MSFontService,sans-serif" font-weight="400" font-size="92" transform="matrix(1 0 0 1 1764.99 1403)">LIBERO</text></g><g><text font-family="Calibri,Calibri_MSFontService,sans-serif" font-weight="400" font-size="92" transform="matrix(1 0 0 1 2036.33 1403)">-</text></g><g><text font-family="Calibri,Calibri_MSFontService,sans-serif" font-weight="400" font-size="92" transform="matrix(1 0 0 1 2065.32 1403)">Spatial</text></g><g><text font-family="Calibri,Calibri_MSFontService,sans-serif" font-weight="400" font-size="92" transform="matrix(1 0 0 1 2516.93 1403)">LIBERO</text></g><g><text font-family="Calibri,Calibri_MSFontService,sans-serif" font-weight="400" font-size="92" transform="matrix(1 0 0 1 2788.26 1403)">-</text></g><g><text font-family="Calibri,Calibri_MSFontService,sans-serif" font-weight="400" font-size="92" transform="matrix(1 0 0 1 2817.25 1403)">All</text></g><text font-family="Calibri,Calibri_MSFontService,sans-serif" font-weight="400" font-size="92" transform="matrix(6.12323e-17 -1 1 6.12323e-17 3240.77 1331)">Avg. Success Rate (%)</text><text font-family="Times New Roman,Times New Roman_MSFontService,sans-serif" font-weight="400" font-size="110" transform="matrix(1 0 0 1 535.897 1551)">(a) </text><text font-family="Times New Roman,Times New Roman_MSFontService,sans-serif" font-weight="400" font-size="110" transform="matrix(1 0 0 1 683.435 1551)">Train</text><text font-family="Times New Roman,Times New Roman_MSFontService,sans-serif" font-weight="400" font-size="110" transform="matrix(1 0 0 1 917.322 1551)">ing</text><text font-family="Times New Roman,Times New Roman_MSFontService,sans-serif" font-weight="400" font-size="110" transform="matrix(1 0 0 1 1085.19 1551)">when</text><text font-family="Times New Roman,Times New Roman_MSFontService,sans-serif" font-weight="400" font-size="110" transform="matrix(1 0 0 1 1351.02 1551)">only</text><text font-family="Times New Roman,Times New Roman_MSFontService,sans-serif" font-weight="400" font-size="110" transform="matrix(1 0 0 1 1573.88 1551)">visual goals are available</text><text font-family="Times New Roman,Times New Roman_MSFontService,sans-serif" font-weight="400" font-size="110" transform="matrix(1 0 0 1 3628.43 1549)">(b) </text><text font-family="Times New Roman,Times New Roman_MSFontService,sans-serif" font-weight="400" font-size="110" transform="matrix(1 0 0 1 3782.27 1549)">Train</text><text font-family="Times New Roman,Times New Roman_MSFontService,sans-serif" font-weight="400" font-size="110" transform="matrix(1 0 0 1 4016.16 1549)">ing</text><text font-family="Times New Roman,Times New Roman_MSFontService,sans-serif" font-weight="400" font-size="110" transform="matrix(1 0 0 1 4184.02 1549)">when</text><text font-family="Times New Roman,Times New Roman_MSFontService,sans-serif" font-weight="400" font-size="110" transform="matrix(1 0 0 1 4449.86 1549)">on</text><text font-family="Times New Roman,Times New Roman_MSFontService,sans-serif" font-weight="400" font-size="110" transform="matrix(1 0 0 1 4559.86 1549)">ly</text><text font-family="Calibri,Calibri_MSFontService,sans-serif" font-weight="400" font-size="110" transform="matrix(1 0 0 1 4672.72 1549)">textual</text><text font-family="Times New Roman,Times New Roman_MSFontService,sans-serif" font-weight="400" font-size="110" transform="matrix(1 0 0 1 5009.34 1549)">goals are available</text><rect x="2014" y="428" width="220" height="72.0002" stroke="#2D85F0" stroke-width="13.75" stroke-miterlimit="8" fill="none"/><text font-family="Calibri,Calibri_MSFontService,sans-serif" font-weight="400" font-size="73" transform="matrix(1 0 0 1 2266.56 494)">Robo</text><text font-family="Calibri,Calibri_MSFontService,sans-serif" font-weight="400" font-size="73" transform="matrix(1 0 0 1 2421.46 494)">-</text><text font-family="Calibri,Calibri_MSFontService,sans-serif" font-weight="400" font-size="73" transform="matrix(1 0 0 1 2443.8 494)">MUTUAL</text><text font-family="Calibri,Calibri_MSFontService,sans-serif" font-weight="400" font-size="73" transform="matrix(1 0 0 1 2707.46 494)">-</text><text font-family="Calibri,Calibri_MSFontService,sans-serif" font-weight="400" font-size="73" transform="matrix(1 0 0 1 2729.8 494)">EPIC</text><text font-family="Calibri,Calibri_MSFontService,sans-serif" font-weight="400" font-size="73" transform="matrix(1 0 0 1 2861 494)">-</text><text font-family="Calibri,Calibri_MSFontService,sans-serif" font-weight="400" font-size="73" transform="matrix(1 0 0 1 2883.34 494)">KITCHEN (</text><text font-family="Calibri,Calibri_MSFontService,sans-serif" font-weight="400" font-size="73" transform="matrix(1 0 0 1 3181.47 494)">eval with </text><text font-family="Calibri,Calibri_MSFontService,sans-serif" font-weight="400" font-size="73" transform="matrix(1 0 0 1 3467.05 494)">textual goals)</text><rect x="500" y="369" width="230" height="72.0002" fill="#FFBC32"/><text font-family="Calibri,Calibri_MSFontService,sans-serif" font-weight="400" font-size="73" transform="matrix(1 0 0 1 764.781 429)">GPT4</text><text font-family="Calibri,Calibri_MSFontService,sans-serif" font-weight="400" font-size="73" transform="matrix(1 0 0 1 921.439 429)">-</text><text font-family="Calibri,Calibri_MSFontService,sans-serif" font-weight="400" font-size="73" transform="matrix(1 0 0 1 943.783 429)">Synthetic (</text><text font-family="Calibri,Calibri_MSFontService,sans-serif" font-weight="400" font-size="73" transform="matrix(1 0 0 1 1258.06 429)">eval with </text><text font-family="Calibri,Calibri_MSFontService,sans-serif" font-weight="400" font-size="73" transform="matrix(1 0 0 1 1543.65 429)">textual goals</text><text font-family="Calibri,Calibri_MSFontService,sans-serif" font-weight="400" font-size="73" transform="matrix(1 0 0 1 1919.02 429)">)</text><rect x="2009" y="313" width="230" height="76" fill="#2D85F0"/><text font-family="Calibri,Calibri_MSFontService,sans-serif" font-weight="400" font-size="73" transform="matrix(1 0 0 1 2271.71 381)">Robo</text><text font-family="Calibri,Calibri_MSFontService,sans-serif" font-weight="400" font-size="73" transform="matrix(1 0 0 1 2426.61 381)">-</text><text font-family="Calibri,Calibri_MSFontService,sans-serif" font-weight="400" font-size="73" transform="matrix(1 0 0 1 2448.95 381)">MUTUAL </text><text font-family="Calibri,Calibri_MSFontService,sans-serif" font-weight="400" font-size="73" transform="matrix(1 0 0 1 2729.22 381)">(</text><text font-family="Calibri,Calibri_MSFontService,sans-serif" font-weight="400" font-size="73" transform="matrix(1 0 0 1 2751.57 381)">eval with </text><text font-family="Calibri,Calibri_MSFontService,sans-serif" font-weight="400" font-size="73" transform="matrix(1 0 0 1 3037.15 381)">textual </text><text font-family="Calibri,Calibri_MSFontService,sans-serif" font-weight="400" font-size="73" transform="matrix(1 0 0 1 3259.49 381)">goals)</text><rect x="3936" y="317" width="229" height="77" fill="#F4433C"/><text font-family="Calibri,Calibri_MSFontService,sans-serif" font-weight="400" font-size="73" transform="matrix(1 0 0 1 4198.01 387)">Robo</text><text font-family="Calibri,Calibri_MSFontService,sans-serif" font-weight="400" font-size="73" transform="matrix(1 0 0 1 4352.91 387)">-</text><text font-family="Calibri,Calibri_MSFontService,sans-serif" font-weight="400" font-size="73" transform="matrix(1 0 0 1 4375.25 387)">MUTUAL (</text><text font-family="Calibri,Calibri_MSFontService,sans-serif" font-weight="400" font-size="73" transform="matrix(1 0 0 1 4677.87 387)">eval with </text><text font-family="Calibri,Calibri_MSFontService,sans-serif" font-weight="400" font-size="73" transform="matrix(1 0 0 1 4963.45 387)">visual goals</text><text font-family="Calibri,Calibri_MSFontService,sans-serif" font-weight="400" font-size="73" transform="matrix(1 0 0 1 5301.54 387)">)</text><rect x="3941" y="428" width="220" height="72.0002" stroke="#F4433C" stroke-width="13.75" stroke-miterlimit="8" fill="#4472C4"/><text font-family="Calibri,Calibri_MSFontService,sans-serif" font-weight="400" font-size="73" transform="matrix(1 0 0 1 4194.14 499)">Robo</text><text font-family="Calibri,Calibri_MSFontService,sans-serif" font-weight="400" font-size="73" transform="matrix(1 0 0 1 4349.03 499)">-</text><text font-family="Calibri,Calibri_MSFontService,sans-serif" font-weight="400" font-size="73" transform="matrix(1 0 0 1 4371.37 499)">MUTUAL</text><text font-family="Calibri,Calibri_MSFontService,sans-serif" font-weight="400" font-size="73" transform="matrix(1 0 0 1 4635.03 499)">-</text><text font-family="Calibri,Calibri_MSFontService,sans-serif" font-weight="400" font-size="73" transform="matrix(1 0 0 1 4657.37 499)">EPIC</text><text font-family="Calibri,Calibri_MSFontService,sans-serif" font-weight="400" font-size="73" transform="matrix(1 0 0 1 4788.57 499)">-</text><text font-family="Calibri,Calibri_MSFontService,sans-serif" font-weight="400" font-size="73" transform="matrix(1 0 0 1 4810.92 499)">KITCHEN </text><text font-family="Calibri,Calibri_MSFontService,sans-serif" font-weight="400" font-size="73" transform="matrix(1 0 0 1 5086.69 499)">(</text><text font-family="Calibri,Calibri_MSFontService,sans-serif" font-weight="400" font-size="73" transform="matrix(1 0 0 1 5109.04 499)">eval with </text><text font-family="Calibri,Calibri_MSFontService,sans-serif" font-weight="400" font-size="73" transform="matrix(1 0 0 1 5394.63 499)">visual goals</text><text font-family="Calibri,Calibri_MSFontService,sans-serif" font-weight="400" font-size="73" transform="matrix(1 0 0 1 5732.72 499)">)</text></g></svg>